<svg width="564" height="558" viewBox="0 0 564 558" fill="none" xmlns="http://www.w3.org/2000/svg">
<path fill-rule="evenodd" clip-rule="evenodd" d="M487.401 426.107C460.049 459.084 420.695 472.521 383.999 493.333C341.598 517.38 309.099 562.793 256.136 557.264C198.369 551.234 131.477 519.419 92.5524 462.909C54.4171 407.544 79.5387 342.058 64.5757 279.158C48.8951 213.242 -13.1705 145.057 3.27184 87.6019C19.6857 30.2463 87.8885 22.3769 141.936 8.83317C190.714 -3.38987 242.738 -3.60549 296.584 14.1014C350.901 31.963 402.127 64.5178 446.92 109.125C495.899 157.9 553.81 213.315 562.141 278.552C570.401 343.235 522.271 384.066 487.401 426.107Z" fill="white" fill-opacity="0.03"/>
</svg>
