<svg width="517" height="497" viewBox="0 0 517 497" fill="none" xmlns="http://www.w3.org/2000/svg">
<path fill-rule="evenodd" clip-rule="evenodd" d="M10.6406 307.894C15.7894 265.968 38.3982 228.872 55.7786 188.625C75.8611 142.121 79.1946 88.0505 120.175 54.2512C164.873 17.3855 227.729 -8.3456 281.288 2.63048C333.761 13.3839 344.763 75.9285 383.755 108.268C424.617 142.158 500.219 144.689 513.943 195.591C527.643 246.405 481.569 300.167 448.324 347.761C418.321 390.715 380.59 427.771 333.525 453.881C286.048 480.219 234.252 494.329 181.745 495.646C124.333 497.086 57.4597 500.328 22.2447 461.687C-12.6703 423.375 4.0766 361.344 10.6406 307.894Z" fill="white" fill-opacity="0.07"/>
</svg>
